<svg width="30" height="30" viewBox="0 0 30 30" fill="none" xmlns="http://www.w3.org/2000/svg">
<path d="M23.75 1.25H6.25C2.80375 1.25 0 4.05375 0 7.5V22.5C0 25.9463 2.80375 28.75 6.25 28.75H23.75C27.1963 28.75 30 25.9463 30 22.5V7.5C30 4.05375 27.1963 1.25 23.75 1.25ZM27.5 22.5C27.5 24.5675 25.8175 26.25 23.75 26.25H6.25C4.1825 26.25 2.5 24.5675 2.5 22.5V7.5C2.5 5.4325 4.1825 3.75 6.25 3.75H23.75C25.8175 3.75 27.5 5.4325 27.5 7.5V22.5ZM23.75 8.75C23.75 9.44 23.19 10 22.5 10H13.75C13.06 10 12.5 9.44 12.5 8.75C12.5 8.06 13.06 7.5 13.75 7.5H22.5C23.19 7.5 23.75 8.06 23.75 8.75ZM10 8.75C10 9.785 9.16 10.625 8.125 10.625C7.09 10.625 6.25 9.785 6.25 8.75C6.25 7.715 7.09 6.875 8.125 6.875C9.16 6.875 10 7.715 10 8.75ZM23.75 15C23.75 15.69 23.19 16.25 22.5 16.25H13.75C13.06 16.25 12.5 15.69 12.5 15C12.5 14.31 13.06 13.75 13.75 13.75H22.5C23.19 13.75 23.75 14.31 23.75 15ZM10 15C10 16.035 9.16 16.875 8.125 16.875C7.09 16.875 6.25 16.035 6.25 15C6.25 13.965 7.09 13.125 8.125 13.125C9.16 13.125 10 13.965 10 15ZM23.75 21.25C23.75 21.94 23.19 22.5 22.5 22.5H13.75C13.06 22.5 12.5 21.94 12.5 21.25C12.5 20.56 13.06 20 13.75 20H22.5C23.19 20 23.75 20.56 23.75 21.25ZM10 21.25C10 22.285 9.16 23.125 8.125 23.125C7.09 23.125 6.25 22.285 6.25 21.25C6.25 20.215 7.09 19.375 8.125 19.375C9.16 19.375 10 20.215 10 21.25Z" fill="#1D1D1D"/>
</svg>
