<svg width="24" height="24" viewBox="0 0 24 24" fill="none" xmlns="http://www.w3.org/2000/svg">
<path d="M21.797 5.58245L14.797 0.859339C13.098 -0.286446 10.902 -0.286446 9.203 0.859339L2.204 5.58245C0.824 6.51228 0 8.06099 0 9.72668V19.0009C0 21.7574 2.243 24 5 24H19C21.757 24 24 21.7574 24 19.0009V9.72668C24 8.06199 23.176 6.51228 21.797 5.58245ZM16 16.0015C16 17.1043 15.103 18.0011 14 18.0011H10C8.897 18.0011 8 17.1043 8 16.0015V12.0022C8 10.8995 8.897 10.0026 10 10.0026H14C15.103 10.0026 16 10.8995 16 12.0022V16.0015ZM14 12.0022L14.002 16.0015H10V12.0022H14Z" fill="#1D1D1D"/>
</svg>
