<svg width="30" height="30" viewBox="0 0 30 30" fill="none" xmlns="http://www.w3.org/2000/svg">
<g clip-path="url(#clip0_19_41)">
<path d="M14.9324 15.0676C16.4202 15.0676 17.8747 14.6257 19.1117 13.7979C20.3488 12.9701 21.313 11.7935 21.8823 10.4168C22.4517 9.04022 22.6007 7.52543 22.3104 6.06402C22.0202 4.60261 21.3037 3.26022 20.2517 2.2066C19.1996 1.15298 17.8592 0.435456 16.4 0.144763C14.9408 -0.14593 13.4283 0.00326428 12.0537 0.573479C10.6791 1.14369 9.50427 2.10932 8.67769 3.34824C7.8511 4.58717 7.40991 6.04375 7.40991 7.53379C7.4119 9.53126 8.20509 11.4463 9.61541 12.8588C11.0257 14.2712 12.9379 15.0656 14.9324 15.0676ZM14.9324 2.51126C15.9243 2.51126 16.8939 2.80583 17.7186 3.35771C18.5433 3.90959 19.1861 4.69401 19.5657 5.61175C19.9453 6.5295 20.0446 7.53936 19.8511 8.51363C19.6576 9.48791 19.1799 10.3828 18.4786 11.0852C17.7772 11.7877 16.8836 12.266 15.9108 12.4598C14.938 12.6536 13.9296 12.5541 13.0133 12.174C12.0969 11.7939 11.3137 11.1501 10.7626 10.3242C10.2115 9.4982 9.91742 8.52715 9.91742 7.53379C9.91742 6.20173 10.4458 4.92423 11.3863 3.98233C12.3268 3.04042 13.6024 2.51126 14.9324 2.51126Z" fill="#1D1D1D"/>
<path d="M14.9325 17.5788C11.9408 17.5822 9.07269 18.7738 6.95729 20.8924C4.84189 23.011 3.652 25.8834 3.64868 28.8795C3.64868 29.2125 3.78077 29.5319 4.0159 29.7674C4.25102 30.0028 4.56992 30.1351 4.90244 30.1351C5.23495 30.1351 5.55385 30.0028 5.78897 29.7674C6.0241 29.5319 6.15619 29.2125 6.15619 28.8795C6.15619 26.5484 7.08083 24.3128 8.7267 22.6644C10.3726 21.0161 12.6049 20.0901 14.9325 20.0901C17.2601 20.0901 19.4924 21.0161 21.1382 22.6644C22.7841 24.3128 23.7087 26.5484 23.7087 28.8795C23.7087 29.2125 23.8408 29.5319 24.076 29.7674C24.3111 30.0028 24.63 30.1351 24.9625 30.1351C25.295 30.1351 25.6139 30.0028 25.849 29.7674C26.0842 29.5319 26.2162 29.2125 26.2162 28.8795C26.2129 25.8834 25.023 23.011 22.9076 20.8924C20.7922 18.7738 17.9241 17.5822 14.9325 17.5788Z" fill="#1D1D1D"/>
</g>
<defs>
<clipPath id="clip0_19_41">
<rect width="30" height="30" fill="white"/>
</clipPath>
</defs>
</svg>
