<svg width="24" height="24" viewBox="0 0 24 24" fill="none" xmlns="http://www.w3.org/2000/svg">
<path d="M14 18.0011H10C8.897 18.0011 8 17.1043 8 16.0015V12.0022C8 10.8995 8.897 10.0026 10 10.0026H14C15.103 10.0026 16 10.8995 16 12.0022V16.0015C16 17.1043 15.103 18.0011 14 18.0011ZM10 12.0022V16.0015H14.002L14 12.0022H10ZM19 24H5C2.243 24 0 21.7574 0 19.0009V9.72668C0 8.06199 0.824 6.51228 2.204 5.58245L9.203 0.859339C10.902 -0.286446 13.098 -0.286446 14.797 0.859339L21.797 5.58245C23.176 6.51228 24 8.06099 24 9.72668V19.0009C24 21.7574 21.757 24 19 24ZM12 2.00112C11.416 2.00112 10.832 2.17309 10.322 2.51803L3.322 7.24014C2.494 7.79804 2 8.72686 2 9.72568V18.9999C2 20.6536 3.346 21.9994 5 21.9994H19C20.654 21.9994 22 20.6536 22 18.9999V9.72668C22 8.72786 21.506 7.79804 20.679 7.24114L13.678 2.51803C13.168 2.17309 12.584 2.00112 12 2.00112Z" fill="black"/>
</svg>
